<?xml version="1.0" encoding="UTF-8"?>
<svg id="Layer_1" data-name="Layer 1" xmlns="http://www.w3.org/2000/svg" viewBox="0 0 508.67 242.74">
  <defs>
    <style>
      .cls-1 {
        fill: #3c2415;
      }

      .cls-2 {
        fill: #231f20;
      }
    </style>
  </defs>
  <path class="cls-1" d="m185.36,86.9c-11.22,16.15-24.19,35.42-33.17,62.79-5.91,18-8.22,33.73-10.23,46.92-3.2,20.97-5.62,35.48-20.58,42.28-7.94,3.63-22.4,6.44-31.5,0-16.92-11.97-1.99-46.59,23.88-98.43,11.18-22.4,24.39-48.01,37.94-76.41,6.1-12.75,12.26-26.06,18.34-39.89C173.03,17.34,180.75-.37,189.9,0c10.15.42,16.53,22.82,16.88,24.16,6.55,23.79-5.76,40.21-21.43,62.74Z"/>
  <path class="cls-2" d="m196.44,90.99c10.87,15.34,23.42,33.66,32.12,59.67,5.72,17.1,7.96,32.06,9.9,44.58,3.1,19.93,5.45,33.71,19.93,40.18,7.69,3.45,21.69,6.12,30.5,0,16.38-11.37,1.92-44.27-23.12-93.53-10.82-21.29-23.61-45.62-36.74-72.61-5.91-12.11-11.87-24.76-17.75-37.91-2.9-6.48-10.37-23.31-19.24-22.95-9.83.4-16,21.69-16.35,22.95-6.34,22.6,5.57,38.21,20.75,59.62Z"/>
</svg>